<svg viewBox="0 0 142 32" xmlns="http://www.w3.org/2000/svg">
  <g fill="currentColor" fill-rule="evenodd">
    <path d="M31.788 19.1890087L5.90123077 6.65474783C5.83892308 6.62553043 5.79738462 6.56013913 5.79738462 6.48918261L5.79738462 6.01057391C5.79738462 5.9104 5.88046154 5.82692174 5.98153846 5.82692174L34.0781538 5.82692174 34.0781538.00153043478 5.98153846.00153043478C2.68338462.00153043478 2.13162821e-14 2.69648696 2.13162821e-14 6.01057391L2.13162821e-14 6.48918261C2.13162821e-14 8.78344348 1.32923077 10.9079652 3.38538462 11.9041391L29.2721538 24.4370087C29.3344615 24.4676174 29.3746154 24.5330087 29.3746154 24.6025739L29.3746154 25.0797913C29.3746154 25.1827478 29.2929231 25.2648348 29.1918462 25.2648348L1.09523077 25.2648348 1.09523077 31.0902261 29.1918462 31.0902261C32.4886154 31.0902261 35.172 28.3938783 35.172 25.0797913L35.172 24.6025739C35.172 22.308313 33.8427692 20.1837913 31.788 19.1890087M138.515477 19.0749217L130.173169 13.4429217 141.053477.00153043478 133.582092.00153043478 122.966246 13.1159652 112.639785 13.1159652 112.639785.000139130435 106.8424.000139130435 106.8424 31.0888348 112.639785 31.0888348 112.639785 18.9455304 125.721631 18.9427478 125.721631 18.9413565 127.921785 18.9413565 135.283785 23.9110957C135.335015 23.944487 135.364092 24.0015304 135.364092 24.0627478L135.364092 31.0888348 141.161477 31.0888348 141.161477 24.0627478C141.161477 22.0578783 140.172862 20.1921391 138.515477 19.0749217M95.3343457 7.07035985C95.3343457 7.14389189 95.3027063 7.21048695 95.2463056 7.25349626L84.0005538 16.0273953 72.7548021 7.25349626C72.6984014 7.21048695 72.6653863 7.14389189 72.6653863 7.07035985L72.6653863.0903652174 67.0005538.0903652174 67.0005538 7.07035985C67.0005538 8.89756178 67.8548183 10.6553939 69.2882218 11.7736359L81.166762 21.0400609 81.166762 31.0903652 81.1681376 31.0903652 86.8329701 31.0903652 86.8329701 21.0400609 98.7128859 11.7736359C100.144914 10.6540065 101.000554 8.89617438 101.000554 7.07035985L101.000554.0903652174 95.3343457.0903652174 95.3343457 7.07035985zM46.1480321 25.1102609L46.1480321 1.65201186e-13 40.4172495 1.65201186e-13 40.4172495 25.1102609C40.4172495 28.3965217 43.0913365 31.0706087 46.3789886 31.0706087L71.6784669 31.0706087 71.6784669 25.3412174 46.3789886 25.3412174C46.2509886 25.3412174 46.1480321 25.2382609 46.1480321 25.1102609"/>
  </g>
</svg>
